# xmcd
#
# Track frame offsets:
#	150
#	17566
#	32739
#	45949
#	59475
#	72534
#	82168
#	97927
#	112251
#	127346
#	142480
#	156769
#	172750
#	192467
#	205085
#
# Disc length: 3032 seconds
#
# Revision: 5
# Processed by: cddbd v1.5.1PL0 Copyright (c) Steve Scherf et al.
# Submitted via: audiograbber 1.83.01
#
DISCID=de0bd60f
DTITLE=1995-10 Country Radio - 1995-10 Country Radio
DYEAR=1995
DGENRE=Country
TTITLE0=Dwight Yoakam - Nothing
TTITLE1=Kim Richey - Those Words We Said
TTITLE2=Clint Black - Life Gets Away
TTITLE3=Terri Clark - When Boy Meets Girl
TTITLE4=Mark Collie - Steady As She Goes
TTITLE5=The Hutchens - Knock, Knock
TTITLE6=Jeff Carson - The Car
TTITLE7=Doug Supernaw - Not Enough Hours Of The Night
TTITLE8=Pam Tillis - Deep Down
TTITLE9=Billy Montana - No Yesterday
TTITLE10=Baker and Myers - These Arms
TTITLE11=Chely Wright - Listenin' To The Radio
TTITLE12=Steve Kline - One Man Wresking Crew
TTITLE13=Hal Ketchum - Veil Of Tears
TTITLE14=Various Artist - Wacky Weekend Medley
EXTD=
EXTT0=
EXTT1=
EXTT2=
EXTT3=
EXTT4=
EXTT5=
EXTT6=
EXTT7=
EXTT8=
EXTT9=
EXTT10=
EXTT11=
EXTT12=
EXTT13=
EXTT14=THE TRACTORS, BROOKS and DUNN, ALAN JACKSON, LEE ROY PARNELL and ALAN JACKSO
EXTT14=N
PLAYORDER=
